HIERARCHY
ROOT Hips
{
  OFFSET -35.4901 99.2528 17.4586
  CHANNELS 6 Xposition Yposition Zposition Zrotation Xrotation Yrotation
  JOINT LeftUpLeg
  {
    OFFSET 8.64259 1.95398 -2.38835
    CHANNELS 3 Zrotation Xrotation Yrotation
    JOINT LeftLeg
    {
      OFFSET 43.7702 0 0
      CHANNELS 3 Zrotation Xrotation Yrotation
      JOINT LeftFoot
      {
        OFFSET 40.6238 0 0
        CHANNELS 3 Zrotation Xrotation Yrotation
        JOINT LeftToeBase
        {
          OFFSET 12.7242 0 0
          CHANNELS 3 Zrotation Xrotation Yrotation
          End Site
          {
            OFFSET 0 0 0
          }
        }
      }
    }
  }
  JOINT RightUpLeg
  {
    OFFSET -8.2249 1.95398 -2.59336
    CHANNELS 3 Zrotation Xrotation Yrotation
    JOINT RightLeg
    {
      OFFSET 43.5653 0 0
      CHANNELS 3 Zrotation Xrotation Yrotation
      JOINT RightFoot
      {
        OFFSET 40.6238 0 0
        CHANNELS 3 Zrotation Xrotation Yrotation
        JOINT RightToeBase
        {
          OFFSET 12.7242 0 0
          CHANNELS 3 Zrotation Xrotation Yrotation
          End Site
          {
            OFFSET 0 0 0
          }
        }
      }
    }
  }
  JOINT Spine
  {
    OFFSET 0.165834 0.87714 6.61349
    CHANNELS 3 Zrotation Xrotation Yrotation
    JOINT Spine1
    {
      OFFSET 7.38963 1.71661e-005 0
      CHANNELS 3 Zrotation Xrotation Yrotation
      JOINT Spine2
      {
        OFFSET 11.9445 1.14441e-005 0
        CHANNELS 3 Zrotation Xrotation Yrotation
        JOINT Spine3
        {
          OFFSET 14.7254 4.19617e-005 0
          CHANNELS 3 Zrotation Xrotation Yrotation
          JOINT Spine4
          {
            OFFSET 10.9679 0 0
            CHANNELS 3 Zrotation Xrotation Yrotation
            JOINT RightShoulder
            {
              OFFSET 2.46616 -1.6653 3.69651
              CHANNELS 3 Zrotation Xrotation Yrotation
              JOINT RightArm
              {
                OFFSET 13.0012 0 0
                CHANNELS 3 Zrotation Xrotation Yrotation
                JOINT RightForeArm
                {
                  OFFSET 28.7848 1.52588e-005 0
                  CHANNELS 3 Zrotation Xrotation Yrotation
                  JOINT RightHand
                  {
                    OFFSET 26.5688 1.52588e-005 0
                    CHANNELS 3 Zrotation Xrotation Yrotation
                    End Site
                    {
                      OFFSET 0 0 0
                    }
                  }
                }
              }
            }
            JOINT LeftShoulder
            {
              OFFSET 2.38034 -1.29275 -3.7523
              CHANNELS 3 Zrotation Xrotation Yrotation
              JOINT LeftArm
              {
                OFFSET 16.3182 6.10351e-005 0
                CHANNELS 3 Zrotation Xrotation Yrotation
                JOINT LeftForeArm
                {
                  OFFSET 27.0901 0 0
                  CHANNELS 3 Zrotation Xrotation Yrotation
                  JOINT LeftHand
                  {
                    OFFSET 24.5451 1.52588e-005 0
                    CHANNELS 3 Zrotation Xrotation Yrotation
                    End Site
                    {
                      OFFSET 0 0 0
                    }
                  }
                }
              }
            }
            JOINT Neck
            {
              OFFSET 5.0226 -0.0266342 0
              CHANNELS 3 Zrotation Xrotation Yrotation
              JOINT Head
              {
                OFFSET 6.69364 2.86102e-005 0
                CHANNELS 3 Zrotation Xrotation Yrotation
                End Site
                {
                  OFFSET 0 0 0
                }
              }
            }
          }
        }
      }
    }
  }
}
MOTION
Frames:	9
Frame Time:	0.0416667
0.436975 95.186 144.989 -149.464 -83.4345 -151.556 178.884 19.3778 86.6659 -7.50515 -2.25041 -1.84669 67.3411 3.6627 -3.46047 16.3672 -2.74103 4.65046 170.046 -10.4879 87.5126 -21.0392 -21.1213 -1.78047 83.3262 -11.1172 -3.41382 22.3389 -2.23853 5.95217 1.01892 8.17485 -89.8956 10.5253 2.07749 0.0219786 -1.14398 2.07643 -0.0695277 -23.6915 1.97479 0.645578 -3.67887 1.97479 0.645572 88.0053 -27.956 -111.611 28.9878 -9.88462 -13.97 -0.597417 -26.4366 -21.4506 -25.2619 0.00551842 -8.20746 -82.8151 -55.8624 90.0528 -26.0894 -0.98973 -5.25104 8.06373 3.95136 -12.5923 -0.627691 -0.155338 -8.59692 -2.15206 -2.04356 4.02429 0.67997 -2.57069 -2.70168 
0.695801 94.4855 152.008 -141.247 -82.9773 -143.461 179.204 17.8486 86.1256 -8.29023 -1.88911 -2.14628 60.4774 1.72914 -3.51304 13.8948 -1.66553 3.27396 169.204 -15.3255 86.1268 -19.472 -22.0044 -2.44268 82.0664 -10.9502 -4.51904 26.9852 -2.79097 7.44145 1.07876 8.04956 -89.8613 10.7756 2.21214 0.0710185 -0.89342 2.21312 -0.0264713 -23.4424 2.08848 0.732861 -3.4298 2.08848 0.732861 87.8088 -28.415 -111.792 30.4851 -10.7259 -13.1355 -0.768791 -26.4886 -21.4209 -24.6996 0.0656099 -8.61599 -82.3608 -56.5895 90.7505 -26.0451 -0.0700442 -4.56009 7.56938 4.6398 -11.1619 -0.667449 -0.141771 -7.8127 -2.43347 -1.70082 4.25682 0.308885 -2.24428 -2.84134 
1.11784 94.6079 159.905 -135.27 -81.8217 -139.324 179.803 15.8246 83.7983 -12.2729 -0.254478 -2.95939 58.7947 0.986017 -2.45 8.81641 -1.61781 3.33328 167.199 -17.8437 82.1508 -21.9097 -23.5759 -3.83017 75.6061 -7.96596 -4.36813 37.6618 -3.27673 9.89643 1.10907 7.94184 -89.5645 10.9848 2.40967 0.637194 -0.684054 2.43538 0.53046 -23.2325 2.10673 1.33219 -3.21979 2.10673 1.3322 87.5239 -29.3253 -111.936 33.8459 -11.812 -11.3193 0.763634 -27.1125 -18.9029 -24.2285 0.120786 -9.10823 -82.4522 -56.1021 90.5847 -26.252 0.170698 -3.61708 6.70889 3.21606 -7.84356 -0.726948 -0.133133 -7.32315 -2.7052 -1.53866 2.73803 -0.499356 -1.86811 -1.96461 
1.4903 95.0343 167.347 -138.616 -80.1929 -144.78 -178.985 13.0558 81.1957 -19.8083 0.936902 -4.21492 65.5142 2.82509 -2.52657 5.64567 -1.33926 3.09672 166.321 -16.0477 78.2468 -33.0681 -25.5082 -6.03311 67.3307 -3.82956 -2.59622 41.5927 -3.76443 12.2602 0.998122 7.98039 -89.264 10.9004 2.32765 1.24537 -0.768924 2.38019 1.14168 -23.3108 1.84579 1.8874 -3.29816 1.84579 1.88739 87.3196 -29.9443 -112.052 37.4951 -12.6356 -8.50573 2.69977 -27.4872 -16.5293 -20.9333 0.107517 -9.70923 -82.8057 -55.3581 90.0244 -26.6271 0.0623822 -2.90436 6.30784 1.78396 -5.38103 -2.17832 -0.095649 -7.06896 -3.49795 -1.14253 1.13951 -0.810229 -1.26368 -0.544355 
1.70636 95.3422 173.295 -133.524 -77.9821 -140.593 -178.531 9.08829 80.4417 -22.6167 -1.02852 -5.34029 70.3943 4.54597 -2.8539 8.39336 -0.691727 2.27268 169.075 -8.08483 76.2489 -49.9416 -27.4558 -7.21655 56.241 1.0146 1.38074 30.4259 -2.30845 6.50032 0.9428 8.05226 -89.1375 10.7528 2.27521 1.5051 -0.916959 2.33924 1.40348 -23.4552 1.71776 2.11928 -3.44259 1.71777 2.11928 86.9261 -30.5291 -112.547 39.2428 -13.2259 -5.96858 3.76683 -28.3131 -15.4805 -24.1434 -0.092476 -8.12431 -83.1099 -54.5754 89.5215 -26.7623 0.313335 -3.91729 6.12032 1.81577 -3.99179 -1.30695 -0.111459 -6.65427 -3.39944 -0.364131 -0.175055 -1.0219 -0.33776 0.442757 
1.62836 95.5519 177.913 -128.206 -76.2133 -134.996 -179.025 6.38427 80.0441 -23.9363 -2.44654 -5.31693 73.8447 5.33256 -1.97509 8.40039 -0.317151 1.83745 174.644 0.885053 77.563 -62.5914 -27.0673 -7.35886 58.7128 -0.00848917 0.611377 27.6338 -1.99577 5.38946 0.76216 8.09946 -89.2254 10.6624 1.87449 1.36916 -1.00784 1.93293 1.28531 -23.5438 1.37642 1.86917 -3.53111 1.37641 1.86916 86.0613 -29.9498 -114.492 40.6528 -11.803 -2.86277 2.57402 -25.8554 -16.6529 -24.3557 0.0206404 -8.29938 -83.7226 -54.6451 88.6488 -26.0523 1.04637 -5.6015 5.92652 2.54313 -4.3685 -0.345622 -0.113464 -5.66644 -3.18571 0.960809 0.216491 -0.866785 0.932917 0.459524 
0.97491 96.035 182.397 -131.284 -76.1621 -135.173 -178.771 3.55917 81.9765 -25.6567 -0.881189 -3.66009 76.2538 5.72914 -1.10972 10.1881 -0.487109 1.95315 177.797 6.72012 82.2127 -62.6733 -19.9667 -5.96631 69.1322 -4.87516 -0.696489 27.0196 -1.92073 5.19696 0.416141 8.2241 -89.5617 10.4222 1.02992 0.780363 -1.24854 1.06326 0.734261 -23.7838 0.747778 1.05381 -3.77115 0.747776 1.0538 87.6237 -31.2668 -110.876 39.0552 -12.4072 -3.41432 2.46373 -27.2085 -16.7936 -24.278 -0.102035 -7.85379 -83.9012 -53.483 88.2736 -23.782 4.93418 -10.8501 4.22646 3.14262 -3.25798 0.686962 -0.121677 -5.93258 -3.18256 1.74305 -2.27489 -0.413904 2.01375 2.35258 
0.0579624 96.4688 186.474 -134.238 -77.2102 -135.539 -177.939 0.692823 84.6048 -25.3038 1.11224 -2.67125 78.1969 6.51259 -0.946986 11.8401 -0.73742 2.17491 179.566 12.0614 87.3818 -54.1184 -10.9955 -5.26341 72.632 -6.87478 -1.7528 26.0535 -1.83307 4.99085 0.0692066 8.2847 -89.8825 10.3039 0.191655 0.217059 -1.36705 0.201019 0.208411 -23.9021 0.117557 0.264632 -3.88949 0.117553 0.264621 87.8186 -32.1162 -110.144 38.1961 -10.8732 -2.71417 2.53659 -26.3113 -16.583 -24.6833 -0.0958752 -7.69794 -84.261 -51.4432 87.521 -22.9092 6.73009 -16.5065 3.6663 3.38464 -3.43672 2.95842 -0.133471 -5.47094 -3.45559 2.36221 -4.05298 -0.845624 2.82025 3.46177 
-0.879511 96.6564 190.669 -140.411 -79.4742 -140.124 -177.43 -1.46129 86.4985 -25.0575 3.31649 -1.64233 79.7329 7.16262 -0.955646 12.1564 -0.555997 1.93593 179.86 15.2707 90.6681 -38.61 -7.90078 -4.59964 70.7286 -6.22734 -0.637186 23.6007 -1.45677 4.12777 -0.337153 8.30045 -90.0676 10.2731 -0.702534 -0.0738088 -1.39767 -0.705098 -0.0428316 -23.9341 -0.64788 -0.281552 -3.92143 -0.647872 -0.281553 87.9967 -32.6475 -109.587 38.4785 -9.58124 -1.96259 2.24977 -25.796 -16.525 -24.8868 -0.00892849 -8.05977 -84.7296 -49.1334 86.5384 -23.5595 5.64638 -21.311 5.35826 5.75422 -6.24208 1.23147 -0.158665 -6.51931 -3.13661 2.64318 -5.87988 -1.59827 3.29716 4.59768 
